<svg width="32" height="32" viewBox="0 0 32 32" fill="none" xmlns="http://www.w3.org/2000/svg">
<g clip-path="url(#clip0_14_314)">
<path d="M18.6666 2.66675H5.33329C3.85329 2.66675 2.66663 3.86675 2.66663 5.33341V18.6667H5.33329V5.33341H18.6666V2.66675ZM24 8.00008H10.6666C9.18663 8.00008 7.99996 9.20008 7.99996 10.6667V24.0001H10.6666V10.6667H24V8.00008ZM26.6666 13.3334H16C14.52 13.3334 13.3333 14.5334 13.3333 16.0001V26.6667C13.3333 28.1334 14.52 29.3334 16 29.3334H26.6666C28.1333 29.3334 29.3333 28.1334 29.3333 26.6667V16.0001C29.3333 14.5334 28.1333 13.3334 26.6666 13.3334Z" fill="black"/>
</g>
<defs>
<clipPath id="clip0_14_314">
<rect width="32" height="32" fill="white"/>
</clipPath>
</defs>
</svg>
