<svg width="62" height="36" viewBox="0 0 62 36" fill="none" xmlns="http://www.w3.org/2000/svg">
<g id="Frame 13">
<g id="PC">
<path d="M2.51587 1.86605H19.1673C21.0024 1.86605 22.6269 2.22916 24.0409 2.9554C25.4548 3.65138 26.5529 4.66508 27.3351 5.99652C28.1173 7.29769 28.5083 8.79556 28.5083 10.4901V14.7114C28.5083 16.4664 28.1022 18.0248 27.2899 19.3865C26.4777 20.7179 25.3345 21.7619 23.8604 22.5184C22.4164 23.2446 20.7317 23.6078 18.8063 23.6078H8.74323V33.6389H2.51587V1.86605ZM18.716 18.161C19.769 18.161 20.6264 17.8281 21.2882 17.1624C21.9501 16.4664 22.281 15.5586 22.281 14.439V10.7624C22.281 9.70335 21.9801 8.87121 21.3785 8.26601C20.8069 7.63055 20.0397 7.31282 19.077 7.31282H8.74323V18.161H18.716Z" fill="#FBF503"/>
<path d="M42.6934 34.002C40.3769 34.002 38.3312 33.5027 36.5563 32.5042C34.8114 31.5056 33.4576 30.0985 32.4949 28.2829C31.5322 26.4371 31.0509 24.3189 31.0509 21.9283V13.5766C31.0509 11.1861 31.5322 9.08302 32.4949 7.26743C33.4877 5.42158 34.8716 3.99937 36.6465 3.00079C38.4515 2.00222 40.5273 1.50293 42.8739 1.50293H47.6572C49.9135 1.50293 51.899 1.98709 53.6138 2.9554C55.3286 3.92372 56.6523 5.28541 57.5849 7.04048C58.5476 8.7653 59.0289 10.7776 59.0289 13.0773H52.8918C52.8918 11.2617 52.4105 9.80926 51.4478 8.71991C50.4851 7.60029 49.2216 7.04048 47.6572 7.04048H42.8739C41.1892 7.04048 39.8354 7.67594 38.8125 8.94686C37.7897 10.1875 37.2783 11.8215 37.2783 13.849V21.656C37.2783 23.6834 37.7747 25.3326 38.7674 26.6035C39.7602 27.8441 41.0688 28.4645 42.6934 28.4645H47.567C49.1614 28.4645 50.455 27.8441 51.4478 26.6035C52.4706 25.3628 52.9821 23.7288 52.9821 21.7014H59.1192C59.1192 24.1524 58.6378 26.316 57.6751 28.1921C56.7125 30.038 55.3587 31.4753 53.6138 32.5042C51.8689 33.5027 49.8533 34.002 47.567 34.002H42.6934Z" fill="#FBF503"/>
</g>
</g>
</svg>
