<svg width="58" height="51" viewBox="0 0 58 51" fill="none" xmlns="http://www.w3.org/2000/svg">
<g id="stadia logo" clip-path="url(#clip0_17_68)">
<g id="g13831">
<g id="stadia-logo-mark">
<path id="Fill-1" fill-rule="evenodd" clip-rule="evenodd" d="M8.91325 8.19807C8.69338 8.3603 8.5708 8.61767 8.56982 8.88254V8.89306C8.5708 9.00471 8.59317 9.11787 8.63938 9.22552L12.5503 18.3649C12.7235 18.77 13.1705 18.9683 13.5757 18.8201C16.1363 17.8782 25.0035 14.8985 30.7419 16.5058C30.7419 16.5058 24.9855 16.8493 19.7801 21.0597C19.4868 21.2976 19.3891 21.7112 19.5394 22.0626C19.9621 23.0475 20.8104 25.0273 21.2905 26.1464L21.9647 27.7777C22.1252 28.1648 22.6379 28.2113 22.8641 27.8608C24.0787 25.9742 26.1266 25.0318 28.0938 24.2092C30.109 23.367 32.2119 22.7386 34.3571 22.3646C36.6428 21.966 38.9767 21.8594 41.2868 22.0702C41.6715 22.1052 42.0286 21.8619 42.1434 21.4823L43.9101 15.6581C44.0142 15.3136 43.8945 14.9371 43.6105 14.7253C41.6404 13.2532 33.8366 8.30873 20.1133 10.295C20.1133 10.295 31.8237 3.35624 46.6906 10.9785C47.141 11.2098 47.6848 10.967 47.8351 10.4733L49.3927 5.33703C49.417 5.25742 49.4287 5.17681 49.4301 5.0972V5.07266C49.4258 4.78025 49.274 4.50286 49.0162 4.35215C47.1502 3.26311 40.8329 9.80694e-08 32.1428 9.80694e-08C25.4821 -0.000500608 17.4282 1.91621 8.91325 8.19807Z" fill="#FBF503"/>
</g>
<g id="logo-stadia-wordmark">
<path id="Shape" d="M16.4224 50.2555H15.0117C14.9052 50.2555 14.803 50.2118 14.7276 50.1339C14.6523 50.0561 14.61 49.9505 14.61 49.8404V41.4094H11.1541C10.9329 41.4083 10.7542 41.2228 10.7542 40.9942V39.6883C10.7542 39.4591 10.934 39.2732 11.1559 39.2732H20.2807C20.5025 39.2732 20.6824 39.4591 20.6824 39.6883V40.9942C20.6824 41.2235 20.5025 41.4094 20.2807 41.4094H16.8242V49.8404C16.8242 49.9505 16.7819 50.0561 16.7065 50.1339C16.6312 50.2118 16.529 50.2555 16.4224 50.2555ZM9.82737 49.4584C10.3445 48.924 10.556 48.2442 10.556 47.1131V46.8253C10.556 45.6929 10.3445 45.015 9.82737 44.4794C9.27939 43.9126 8.55318 43.6816 7.3231 43.6816H2.8565C2.67885 43.6816 2.50849 43.6087 2.38294 43.4788C2.25738 43.349 2.18692 43.1729 2.18708 42.9893V42.101C2.18708 41.719 2.48679 41.4094 2.8565 41.4094H9.251C9.47289 41.4094 9.65277 41.2235 9.65277 40.9942V39.6883C9.65277 39.4591 9.47289 39.2732 9.251 39.2732H3.23289C2.00221 39.2732 1.2766 39.5042 0.72802 40.071C0.210854 40.6053 0 41.2851 0 42.4163V42.6435C0 43.7778 0.210854 44.4551 0.72802 44.9894C1.2766 45.5562 2.00221 45.7872 3.23289 45.7872H7.71581C8.08562 45.7872 8.3855 46.0968 8.38583 46.4789V47.4271C8.38583 47.8094 8.08585 48.1194 7.71581 48.1194H0.981166C0.759274 48.1194 0.579396 48.3052 0.579396 48.5345V49.8404C0.579396 49.9505 0.621725 50.0561 0.697071 50.1339C0.772418 50.2118 0.87461 50.2555 0.981166 50.2555H7.32491C8.55379 50.2555 9.27939 50.0246 9.82737 49.4584ZM41.7479 44.7341V44.8096C41.7479 46.9258 41.4235 48.0108 40.5069 48.9577C39.6611 49.8317 38.402 50.2686 36.7563 50.2686H31.8891C31.6672 50.2686 31.4873 50.0828 31.4873 49.8535V39.6883C31.4873 39.4591 31.6672 39.2732 31.8891 39.2732H36.7581C38.4038 39.2732 39.6653 39.7152 40.5088 40.5841C41.4253 41.5305 41.7479 42.6185 41.7479 44.7341ZM39.5342 44.7341C39.5342 43.3258 39.4478 42.6485 38.9131 42.096C38.4757 41.6441 37.7707 41.425 36.7563 41.425H33.7016V48.1194H36.7581C37.7725 48.1194 38.4781 47.8996 38.915 47.4477C39.4496 46.8959 39.536 46.2179 39.536 44.8096L39.5342 44.7341ZM45.3391 49.8404V39.6883C45.3391 39.4591 45.1592 39.2732 44.9373 39.2732H43.5284C43.3065 39.2732 43.1266 39.4591 43.1266 39.6883V49.8404C43.1266 50.0697 43.3065 50.2555 43.5284 50.2555H44.9391C45.0457 50.2555 45.1479 50.2118 45.2232 50.1339C45.2985 50.0561 45.3409 49.9505 45.3409 49.8404H45.3391ZM30.1902 50.2555H28.6979C28.4885 50.2553 28.2984 50.1293 28.2109 49.9328L27.5246 48.3972H21.9862L21.2987 49.9334C21.2116 50.1285 21.0232 50.2538 20.8153 50.2549H19.3158C19.1776 50.255 19.0491 50.1818 18.9754 50.061C18.9018 49.9401 18.8935 49.7887 18.9533 49.66L23.4846 39.9118C23.7213 39.4108 24.2137 39.0931 24.7533 39.0931C25.2929 39.0931 25.7853 39.4108 26.0221 39.9118L30.5533 49.6588C30.6139 49.7874 30.6061 49.9392 30.5327 50.0606C30.4592 50.1819 30.3305 50.2555 30.192 50.2555H30.1902ZM22.8907 46.364H26.6226L24.7606 41.9762L22.8907 46.364ZM57.5976 50.2555H56.1023C55.8929 50.2555 55.7027 50.1294 55.6153 49.9328L54.9302 48.3972H49.3918L48.7049 49.9334C48.6175 50.1281 48.4293 50.2533 48.2215 50.2549H46.722C46.5838 50.255 46.4553 50.1818 46.3816 50.061C46.308 49.9401 46.2997 49.7887 46.3595 49.66L50.8907 39.9118C51.1272 39.4104 51.6197 39.0923 52.1595 39.0923C52.6993 39.0923 53.1918 39.4104 53.4282 39.9118L57.9595 49.6588C58.0201 49.7875 58.0123 49.9395 57.9387 50.0608C57.8651 50.1822 57.7362 50.2558 57.5976 50.2555H57.5976ZM50.2962 46.364H54.0282L52.1667 41.9762L50.2962 46.364Z" fill="#FBF503"/>
</g>
</g>
</g>
<defs>
<clipPath id="clip0_17_68">
<rect width="58" height="50.2683" fill="white"/>
</clipPath>
</defs>
</svg>
