<svg width="27" height="16" viewBox="0 0 27 16" fill="none" xmlns="http://www.w3.org/2000/svg">
<path d="M0.941241 1.88297H26.0583C26.5784 1.88297 26.9998 1.46127 26.9998 0.941485C26.9998 0.421705 26.5784 0 26.0583 0H0.941241C0.421111 0 -0.000244141 0.421705 -0.000244141 0.941485C-0.000244141 1.46092 0.421111 1.88297 0.941241 1.88297Z" fill="black"/>
<path d="M0.941241 8.79169H26.0583C26.5784 8.79169 26.9998 8.36999 26.9998 7.85021C26.9998 7.33043 26.5784 6.90872 26.0583 6.90872H0.941241C0.421111 6.90872 -0.000244141 7.33043 -0.000244141 7.85021C-0.000244141 8.36999 0.421111 8.79169 0.941241 8.79169Z" fill="black"/>
<path d="M0.941241 15.7004H26.0583C26.5784 15.7004 26.9998 15.2787 26.9998 14.7589C26.9998 14.2391 26.5784 13.8174 26.0583 13.8174H0.941241C0.421111 13.8174 -0.000244141 14.2391 -0.000244141 14.7589C-0.000244141 15.2794 0.421111 15.7004 0.941241 15.7004Z" fill="black"/>
</svg>
