<svg width="74" height="62" viewBox="0 0 74 62" fill="none" xmlns="http://www.w3.org/2000/svg">
<g filter="url(#filter0_d_87_333)">
<path d="M37.5 1C29.6598 1 23.3182 7.34664 23.3182 15.1936C23.3182 21.7202 27.7029 27.201 33.6875 28.8655C33.8051 28.8999 33.9051 28.9779 33.9666 29.0839L37.5 35.1912L41.0334 29.0839C41.0949 28.9779 41.1949 28.8999 41.3125 28.8655C47.2954 27.1994 51.6818 21.7183 51.6818 15.1936C51.6818 7.34574 45.3403 1 37.5 1H37.5ZM37.5 5.2134C43.0306 5.2134 47.5293 9.70731 47.5293 15.2427C47.5293 20.778 43.0308 25.2719 37.5 25.2719C31.9693 25.2719 27.4708 20.778 27.4708 15.2427C27.4708 9.70731 31.9693 5.2134 37.5 5.2134ZM34.8895 7.99384C34.6998 8.01823 34.5494 8.1654 34.5212 8.35457C34.493 8.54375 34.5938 8.72859 34.7681 8.80718C35.108 8.97413 35.2988 9.1438 35.3996 9.26847C35.5004 9.39341 35.5224 9.46415 35.521 9.57202C35.5172 9.78776 35.3318 10.1618 35.0717 10.5678C34.8115 10.9738 34.4854 11.4126 34.4646 11.9885C34.454 12.2764 34.5413 12.5859 34.7437 12.8507C34.9462 13.1155 35.2381 13.3494 35.6421 13.5548H35.6424C35.7438 13.6063 35.8614 13.6155 35.9695 13.5803C36.078 13.545 36.1677 13.4681 36.2192 13.3667C36.2707 13.2653 36.2799 13.1474 36.2444 13.0393C36.2091 12.9312 36.1322 12.8414 36.0308 12.7899C35.7012 12.6222 35.518 12.4642 35.4237 12.3406C35.3291 12.217 35.3104 12.1357 35.3145 12.0248C35.3226 11.8031 35.527 11.437 35.788 11.0291C36.0492 10.6214 36.3755 10.1629 36.3829 9.58423C36.3867 9.29478 36.2774 8.98283 36.0671 8.72209C35.8571 8.46136 35.5568 8.24481 35.1443 8.04208L35.1445 8.04235C35.0808 8.00902 35.0098 7.99248 34.938 7.99384C34.9217 7.99275 34.9058 7.99275 34.8895 7.99384L34.8895 7.99384ZM37.1965 8.72236C37.0377 8.7435 36.9041 8.85164 36.8504 9.0026C36.7965 9.15356 36.8317 9.32187 36.9415 9.43868C37.2109 9.74169 37.2239 9.88805 37.1965 10.058C37.1694 10.2279 37.0445 10.4526 36.8808 10.7258C36.7171 10.999 36.5081 11.3367 36.4921 11.7701C36.4761 12.2034 36.6829 12.6639 37.1355 13.1057H37.1358C37.2128 13.1992 37.326 13.2556 37.4472 13.261C37.5683 13.2661 37.686 13.2195 37.7711 13.1331C37.8559 13.0463 37.8998 12.9279 37.8922 12.8067C37.8846 12.6859 37.8258 12.5737 37.7307 12.4986C37.3851 12.1614 37.3483 11.9603 37.3542 11.7945C37.3605 11.6286 37.4537 11.4346 37.6093 11.1752C37.7646 10.9161 37.9684 10.6125 38.0342 10.2038C38.1001 9.79513 37.9716 9.30325 37.5849 8.86822L37.5851 8.86795C37.4971 8.76686 37.3667 8.71292 37.2328 8.7224C37.2206 8.72186 37.2084 8.72186 37.1962 8.7224L37.1965 8.72236ZM31.854 14.4654C31.6581 14.5063 31.5166 14.6778 31.5142 14.8781C31.5142 14.8781 31.5033 15.6305 31.5627 16.5536C31.6223 17.4767 31.7378 18.5597 32.0847 19.3585C32.492 20.2965 33.3151 21.154 33.9423 21.7746L33.9425 21.7749C34.0236 21.854 34.1328 21.8977 34.2461 21.8963H38.1437H38.1434C38.2567 21.8977 38.366 21.854 38.447 21.7749C39.0181 21.2104 39.749 20.4525 40.1832 19.6138C40.2211 19.61 40.3943 19.594 40.6444 19.5531C40.9206 19.5081 41.2355 19.4512 41.5066 19.3346C42.1183 19.0712 42.7137 18.6655 43.0728 18.1811C43.2875 17.8919 43.5122 17.5312 43.5948 17.1006C43.6778 16.6699 43.5813 16.1534 43.2062 15.7405C42.9755 15.4869 42.6801 15.4064 42.3807 15.34C42.0809 15.2733 41.7559 15.2432 41.4578 15.2307C41.2307 15.2212 41.0494 15.2272 40.8751 15.2307V14.8787L40.8754 14.8781C40.8675 14.6488 40.68 14.4667 40.4504 14.4654H31.9385C31.9104 14.4626 31.8819 14.4626 31.8537 14.4654L31.854 14.4654ZM40.8634 16.0801C41.0309 16.0766 41.2089 16.0712 41.422 16.0801C41.6905 16.0915 41.9797 16.1164 42.199 16.1652C42.4185 16.214 42.564 16.3108 42.5754 16.3229C42.7852 16.5536 42.8009 16.7162 42.7576 16.9422C42.7142 17.1683 42.5681 17.4352 42.3933 17.6708C42.1903 17.9442 41.6561 18.3342 41.1669 18.5451C41.0625 18.5901 40.7709 18.6619 40.5235 18.7029C40.7064 18.0207 40.7948 17.2423 40.8392 16.5536C40.8501 16.3839 40.8574 16.2346 40.8633 16.0801H40.8634Z" fill="#E09446"/>
<path d="M15.0557 42.5967L13.8867 43.0889C13.7956 42.7926 13.6725 42.5215 13.5176 42.2754C13.3672 42.0293 13.1849 41.8197 12.9707 41.6465C12.7611 41.4688 12.5218 41.332 12.2529 41.2363C11.984 41.1361 11.6901 41.0859 11.3711 41.0859C11.0293 41.0859 10.7148 41.1429 10.4277 41.2568C10.1452 41.3662 9.88997 41.5189 9.66211 41.7148C9.4388 41.9108 9.24284 42.1387 9.07422 42.3984C8.9056 42.6582 8.76432 42.9362 8.65039 43.2324C8.53646 43.5241 8.45215 43.8271 8.39746 44.1416C8.34277 44.4561 8.31543 44.7637 8.31543 45.0645C8.31543 45.543 8.37012 46.0192 8.47949 46.4932C8.59342 46.9671 8.77116 47.3932 9.0127 47.7715C9.25879 48.1497 9.57552 48.4574 9.96289 48.6943C10.3503 48.9268 10.8197 49.043 11.3711 49.043C11.6628 49.043 11.9385 48.9951 12.1982 48.8994C12.458 48.7992 12.6927 48.6647 12.9023 48.4961C13.1165 48.3229 13.3034 48.1201 13.4629 47.8877C13.6224 47.6553 13.75 47.4046 13.8457 47.1357L15.0283 47.6074C14.8551 48.0404 14.6182 48.4209 14.3174 48.749C14.0166 49.0726 13.6725 49.3415 13.2852 49.5557C12.9023 49.7699 12.4899 49.9294 12.0479 50.0342C11.6104 50.1436 11.1683 50.1982 10.7217 50.1982C10.2386 50.1982 9.77376 50.139 9.32715 50.0205C8.88509 49.902 8.47266 49.7334 8.08984 49.5146C7.70703 49.2959 7.3584 49.0316 7.04395 48.7217C6.73405 48.4118 6.46745 48.0677 6.24414 47.6895C6.02539 47.3112 5.85449 46.901 5.73145 46.459C5.61296 46.0124 5.55371 45.5475 5.55371 45.0645C5.55371 44.5814 5.61296 44.1188 5.73145 43.6768C5.85449 43.2301 6.02539 42.8177 6.24414 42.4395C6.46745 42.0566 6.73405 41.7103 7.04395 41.4004C7.3584 41.0905 7.70703 40.8262 8.08984 40.6074C8.47266 40.3887 8.88509 40.2201 9.32715 40.1016C9.77376 39.9831 10.2386 39.9238 10.7217 39.9238C11.1865 39.9238 11.64 39.9785 12.082 40.0879C12.5286 40.1973 12.9434 40.3636 13.3262 40.5869C13.709 40.8057 14.0485 41.0837 14.3447 41.4209C14.6455 41.7536 14.8825 42.1455 15.0557 42.5967ZM26.5737 45.29V45.4199C26.5646 45.8027 26.5235 46.1992 26.4506 46.6094C26.3823 47.0195 26.2843 47.4297 26.1567 47.8398C26.0291 48.25 25.8764 48.6556 25.6987 49.0566C25.5209 49.4577 25.3204 49.8405 25.0971 50.2051C24.8784 50.5742 24.6414 50.9183 24.3862 51.2373C24.131 51.5609 23.8621 51.8457 23.5795 52.0918L22.561 51.5039C22.7205 51.235 22.864 50.9411 22.9916 50.6221C23.1238 50.3076 23.2423 49.9772 23.3471 49.6309C23.4519 49.2845 23.5408 48.929 23.6137 48.5645C23.6912 48.1999 23.755 47.8376 23.8051 47.4775C23.8552 47.1175 23.8917 46.7643 23.9145 46.418C23.9418 46.0671 23.9555 45.7344 23.9555 45.4199C23.9555 45.1738 23.9532 44.8958 23.9487 44.5859C23.9487 44.2715 23.9304 43.9525 23.894 43.6289C23.8621 43.3053 23.8074 42.9909 23.7299 42.6855C23.6524 42.3757 23.5362 42.0999 23.3813 41.8584C23.2309 41.6169 23.0349 41.4232 22.7934 41.2773C22.5564 41.1315 22.2602 41.0586 21.9047 41.0586C21.5903 41.0586 21.3191 41.1133 21.0913 41.2227C20.8679 41.3275 20.6765 41.471 20.517 41.6533C20.3621 41.8311 20.2368 42.0384 20.1411 42.2754C20.0499 42.5124 19.977 42.763 19.9223 43.0273C19.8722 43.2871 19.838 43.5514 19.8198 43.8203C19.8061 44.0846 19.7993 44.3353 19.7993 44.5723V46.4795H22.7455V47.6074H19.7993V50H17.0854V44.9961C17.0854 44.2806 17.1993 43.6152 17.4272 43C17.6551 42.3848 17.9763 41.8516 18.3911 41.4004C18.8103 40.9447 19.3116 40.5892 19.895 40.334C20.4829 40.0742 21.1368 39.9443 21.8569 39.9443C22.3445 39.9443 22.8002 40.015 23.2241 40.1562C23.6524 40.293 24.0421 40.4844 24.393 40.7305C24.7439 40.972 25.0561 41.2614 25.3295 41.5986C25.6075 41.9313 25.8377 42.2959 26.02 42.6924C26.2068 43.0889 26.3481 43.5081 26.4438 43.9502C26.5395 44.3923 26.5828 44.8389 26.5737 45.29ZM31.618 50H28.9042V40.1562H35.9725V41.4141H31.618V44.4561H34.9813V45.707H31.618V50ZM45.0228 50H37.9544V40.1562H45.0228V41.4141H40.6683V44.4561H44.0316V45.707H40.6683V48.7422H45.0228V50ZM48.5222 50H47.2644V40.1562H49.0281L55.0095 46.917V40.1562H56.2605V50H54.4968L48.5222 43.2461V50ZM68.4211 45.29V45.4199C68.412 45.8027 68.371 46.1992 68.298 46.6094C68.2297 47.0195 68.1317 47.4297 68.0041 47.8398C67.8765 48.25 67.7238 48.6556 67.5461 49.0566C67.3684 49.4577 67.1678 49.8405 66.9445 50.2051C66.7258 50.5742 66.4888 50.9183 66.2336 51.2373C65.9784 51.5609 65.7095 51.8457 65.427 52.0918L64.4084 51.5039C64.5679 51.235 64.7115 50.9411 64.8391 50.6221C64.9712 50.3076 65.0897 49.9772 65.1945 49.6309C65.2993 49.2845 65.3882 48.929 65.4611 48.5645C65.5386 48.1999 65.6024 47.8376 65.6525 47.4775C65.7027 47.1175 65.7391 46.7643 65.7619 46.418C65.7893 46.0671 65.8029 45.7344 65.8029 45.4199C65.8029 45.1738 65.8007 44.8958 65.7961 44.5859C65.7961 44.2715 65.7779 43.9525 65.7414 43.6289C65.7095 43.3053 65.6548 42.9909 65.5773 42.6855C65.4999 42.3757 65.3837 42.0999 65.2287 41.8584C65.0783 41.6169 64.8824 41.4232 64.6408 41.2773C64.4038 41.1315 64.1076 41.0586 63.7521 41.0586C63.4377 41.0586 63.1665 41.1133 62.9387 41.2227C62.7154 41.3275 62.524 41.471 62.3645 41.6533C62.2095 41.8311 62.0842 42.0384 61.9885 42.2754C61.8973 42.5124 61.8244 42.763 61.7697 43.0273C61.7196 43.2871 61.6854 43.5514 61.6672 43.8203C61.6535 44.0846 61.6467 44.3353 61.6467 44.5723V46.4795H64.593V47.6074H61.6467V50H58.9328V44.9961C58.9328 44.2806 59.0467 43.6152 59.2746 43C59.5025 42.3848 59.8238 41.8516 60.2385 41.4004C60.6577 40.9447 61.159 40.5892 61.7424 40.334C62.3303 40.0742 62.9842 39.9443 63.7043 39.9443C64.1919 39.9443 64.6477 40.015 65.0715 40.1562C65.4999 40.293 65.8895 40.4844 66.2404 40.7305C66.5913 40.972 66.9035 41.2614 67.177 41.5986C67.4549 41.9313 67.6851 42.2959 67.8674 42.6924C68.0542 43.0889 68.1955 43.5081 68.2912 43.9502C68.3869 44.3923 68.4302 44.8389 68.4211 45.29Z" fill="black"/>
</g>
<defs>
<filter id="filter0_d_87_333" x="0.553711" y="0" width="72.8811" height="61.0918" filterUnits="userSpaceOnUse" color-interpolation-filters="sRGB">
<feFlood flood-opacity="0" result="BackgroundImageFix"/>
<feColorMatrix in="SourceAlpha" type="matrix" values="0 0 0 0 0 0 0 0 0 0 0 0 0 0 0 0 0 0 127 0" result="hardAlpha"/>
<feOffset dy="4"/>
<feGaussianBlur stdDeviation="2.5"/>
<feComposite in2="hardAlpha" operator="out"/>
<feColorMatrix type="matrix" values="0 0 0 0 0 0 0 0 0 0 0 0 0 0 0 0 0 0 0.25 0"/>
<feBlend mode="normal" in2="BackgroundImageFix" result="effect1_dropShadow_87_333"/>
<feBlend mode="normal" in="SourceGraphic" in2="effect1_dropShadow_87_333" result="shape"/>
</filter>
</defs>
</svg>
