<svg width="23" height="27" viewBox="0 0 23 27" fill="none" xmlns="http://www.w3.org/2000/svg">
<path d="M1.51633 10.105C1.74878 7.57934 2.95076 5.29185 4.90062 3.67104C6.85048 2.05022 9.31871 1.28303 11.8442 1.51551C14.3696 1.748 16.6573 2.94995 18.2781 4.89981C21.4654 8.7325 21.1215 14.349 17.6099 17.7716L21.7281 22.7256C21.9929 23.0467 21.9497 23.516 21.6294 23.7854C21.5257 23.8746 21.4009 23.9247 21.2761 23.9461C21.0217 23.9899 20.7489 23.8987 20.5696 23.6866L16.4514 18.7327C15.2714 19.5689 13.9524 20.0956 12.5973 20.3286C9.35973 20.8851 5.91663 19.7485 3.67108 17.044C2.05101 15.0988 1.28467 12.6352 1.51635 10.1051L1.51633 10.105ZM4.8258 16.0882C7.64678 19.4794 12.6979 19.9445 16.0889 17.1234C19.48 14.3022 19.9406 9.2521 17.1248 5.86447C15.757 4.22346 13.8354 3.21096 11.7067 3.01503C10.9958 2.95152 10.2907 2.97749 9.60624 3.09516C8.24182 3.32971 6.95254 3.918 5.86163 4.82933C4.22061 6.19714 3.20811 8.11874 3.01218 10.2475C2.81547 12.3717 3.46253 14.4461 4.82568 16.0878L4.8258 16.0882Z" fill="black"/>
</svg>
