<svg width="104" height="104" viewBox="0 0 104 104" fill="none" xmlns="http://www.w3.org/2000/svg">
<g filter="url(#filter0_d_412_884)">
<rect x="31" y="21" width="42" height="42" fill="#FBD13E"/>
</g>
<path d="M43.2848 54.1011L40.574 43.3228H39V37.2332H45.0045L47.9484 30L49.639 30.6576L46.9574 37.2618H57.0135L54.361 30.6576L56.0516 30L58.9955 37.2332H65V43.3228H63.426L60.7152 54.1011H43.2848ZM59.3161 52.3285L61.5897 43.3514H42.4395L44.713 52.3285H59.3161ZM63.1928 41.5502V39.0629H40.8363V41.5502H63.1928Z" fill="black"/>
<path d="M52.9327 44.838H51.0963V51.2707H52.9327V44.838Z" fill="black"/>
<path d="M56.4305 44.838H54.5942V51.2707H56.4305V44.838Z" fill="black"/>
<path d="M49.435 44.838H47.5986V51.2707H49.435V44.838Z" fill="black"/>
<defs>
<filter id="filter0_d_412_884" x="0" y="0" width="104" height="104" filterUnits="userSpaceOnUse" color-interpolation-filters="sRGB">
<feFlood flood-opacity="0" result="BackgroundImageFix"/>
<feColorMatrix in="SourceAlpha" type="matrix" values="0 0 0 0 0 0 0 0 0 0 0 0 0 0 0 0 0 0 127 0" result="hardAlpha"/>
<feOffset dy="10"/>
<feGaussianBlur stdDeviation="15.5"/>
<feColorMatrix type="matrix" values="0 0 0 0 0.0588235 0 0 0 0 0.0588235 0 0 0 0 0.0666667 0 0 0 0.2 0"/>
<feBlend mode="normal" in2="BackgroundImageFix" result="effect1_dropShadow_412_884"/>
<feBlend mode="normal" in="SourceGraphic" in2="effect1_dropShadow_412_884" result="shape"/>
</filter>
</defs>
</svg>
