<svg width="41" height="34" viewBox="0 0 41 34" fill="none" xmlns="http://www.w3.org/2000/svg">
<path fill-rule="evenodd" clip-rule="evenodd" d="M40.537 10.4461C40.537 10.4142 40.5106 10.3994 40.5053 10.368C40.4975 10.2991 40.5106 10.2289 40.4817 10.1629L36.3657 0.466049C36.2525 0.201413 35.9896 0.0264893 35.6978 0.0264893H5.32347C5.03145 0.0264893 4.76859 0.201413 4.65533 0.466049L0.536665 10.1629C0.507736 10.2289 0.520882 10.2991 0.510374 10.368C0.507736 10.3994 0.481445 10.4142 0.481445 10.4461C0.481445 10.4604 0.497317 10.4719 0.497317 10.4882C0.507736 10.6463 0.552448 10.7972 0.660382 10.9221L19.9649 32.7548C19.9805 32.7741 20.0096 32.7661 20.0253 32.7856C20.0778 32.8318 20.1201 32.8738 20.1831 32.9076C20.1963 32.9132 20.1988 32.936 20.2173 32.9416C20.3119 32.9816 20.4118 33.002 20.5066 33.002C20.6038 33.002 20.7039 32.9816 20.7986 32.9416C20.8169 32.936 20.8196 32.9132 20.8327 32.9046C20.8958 32.8738 20.9379 32.8318 20.9879 32.7856C21.0063 32.7661 21.0353 32.7741 21.0511 32.7548L40.3555 10.9221C40.4633 10.7972 40.5106 10.6463 40.5212 10.4882C40.5212 10.4719 40.537 10.4604 40.537 10.4461ZM25.4327 1.46948L28.9832 9.72511H12.0353L15.5884 1.46948H25.4327ZM28.9727 11.1672L20.5066 30.4745L12.0456 11.1672H28.9727ZM10.4624 11.1672L17.987 28.3383L2.80639 11.1672H10.4624ZM30.556 11.1672H38.2093L23.0287 28.3353L30.556 11.1672ZM38.7222 9.72511H30.5585L27.008 1.46948H35.2163L38.7222 9.72511ZM5.80211 1.46948H14.0157L10.4624 9.72511H2.29609L5.80211 1.46948Z" fill="url(#paint0_linear_104906_156)"/>
<path fill-rule="evenodd" clip-rule="evenodd" d="M40.537 10.4461C40.537 10.4142 40.5106 10.3994 40.5053 10.368C40.4975 10.2991 40.5106 10.2289 40.4817 10.1629L36.3657 0.466049C36.2525 0.201413 35.9896 0.0264893 35.6978 0.0264893H5.32347C5.03145 0.0264893 4.76859 0.201413 4.65533 0.466049L0.536665 10.1629C0.507736 10.2289 0.520882 10.2991 0.510374 10.368C0.507736 10.3994 0.481445 10.4142 0.481445 10.4461C0.481445 10.4604 0.497317 10.4719 0.497317 10.4882C0.507736 10.6463 0.552448 10.7972 0.660382 10.9221L19.9649 32.7548C19.9805 32.7741 20.0096 32.7661 20.0253 32.7856C20.0778 32.8318 20.1201 32.8738 20.1831 32.9076C20.1963 32.9132 20.1988 32.936 20.2173 32.9416C20.3119 32.9816 20.4118 33.002 20.5066 33.002C20.6038 33.002 20.7039 32.9816 20.7986 32.9416C20.8169 32.936 20.8196 32.9132 20.8327 32.9046C20.8958 32.8738 20.9379 32.8318 20.9879 32.7856C21.0063 32.7661 21.0353 32.7741 21.0511 32.7548L40.3555 10.9221C40.4633 10.7972 40.5106 10.6463 40.5212 10.4882C40.5212 10.4719 40.537 10.4604 40.537 10.4461ZM25.4327 1.46948L28.9832 9.72511H12.0353L15.5884 1.46948H25.4327ZM28.9727 11.1672L20.5066 30.4745L12.0456 11.1672H28.9727ZM10.4624 11.1672L17.987 28.3383L2.80639 11.1672H10.4624ZM30.556 11.1672H38.2093L23.0287 28.3353L30.556 11.1672ZM38.7222 9.72511H30.5585L27.008 1.46948H35.2163L38.7222 9.72511ZM5.80211 1.46948H14.0157L10.4624 9.72511H2.29609L5.80211 1.46948Z" fill="#FF3B4A"/>
<defs>
<linearGradient id="paint0_linear_104906_156" x1="16.8678" y1="-13.4635" x2="-8.63953" y2="24.4057" gradientUnits="userSpaceOnUse">
<stop stop-color="white"/>
<stop offset="1" stop-color="white"/>
</linearGradient>
</defs>
</svg>
