<svg width="41" height="42" viewBox="0 0 41 42" fill="none" xmlns="http://www.w3.org/2000/svg">
<path fill-rule="evenodd" clip-rule="evenodd" d="M20.1815 26.6571C17.1246 26.6571 14.6366 24.1631 14.6366 21.0918C14.6366 18.0226 17.1246 15.5285 20.1815 15.5285C23.2355 15.5285 25.721 18.0226 25.721 21.0918C25.721 24.1631 23.2355 26.6571 20.1815 26.6571ZM20.1815 16.9706C17.915 16.9706 16.0737 18.82 16.0737 21.0918C16.0737 23.3636 17.915 25.2147 20.1815 25.2147C22.4426 25.2147 24.2839 23.3636 24.2839 21.0918C24.2839 18.82 22.4426 16.9706 20.1815 16.9706ZM17.7662 41.1888C17.4377 41.1888 17.1509 40.9627 17.0699 40.6436L15.8337 35.6809C14.8713 35.3825 13.922 34.9767 13.0039 34.4756L8.60657 37.1254C8.32497 37.2953 7.96255 37.2485 7.73028 37.0188L4.3137 33.5882C4.08151 33.3558 4.03721 32.9932 4.20671 32.7094L6.84618 28.302C6.35594 27.39 5.96203 26.4411 5.67004 25.4637L0.698742 24.2167C0.380667 24.137 0.153809 23.8463 0.153809 23.5187V18.6747C0.153809 18.3423 0.380667 18.0534 0.698742 17.9753L5.64129 16.7368C5.94381 15.7606 6.34803 14.8075 6.84356 13.8923L4.20418 9.47749C4.03468 9.19303 4.0791 8.82897 4.31108 8.59573L7.7225 5.17279C7.95727 4.93748 8.31973 4.88895 8.60149 5.06508L12.9987 7.71128C13.9037 7.22464 14.8505 6.82565 15.8232 6.5338L17.0646 1.54389C17.1455 1.22304 17.4324 0.997192 17.7612 0.997192H22.5887C22.9173 0.997192 23.2068 1.22304 23.2851 1.54389L24.5214 6.51044C25.4916 6.81351 26.4409 7.21787 27.3485 7.70772L31.7509 5.0565C32.0274 4.89458 32.3926 4.93748 32.6274 5.16747L36.0387 8.59067C36.2735 8.82391 36.3178 9.18682 36.1483 9.47304L33.5088 13.8923C33.994 14.798 34.3878 15.7476 34.6799 16.7184L39.6562 17.9702C39.977 18.0484 40.2013 18.339 40.2013 18.6694V23.5095C40.2013 23.839 39.977 24.1302 39.6562 24.2075L34.6799 25.4586C34.3878 26.439 33.994 27.388 33.5114 28.2878L36.1535 32.7038C36.323 32.9897 36.2787 33.3529 36.044 33.5858L32.6325 37.0164C32.3979 37.2485 32.0352 37.2881 31.7561 37.1254L27.3538 34.4732C26.4461 34.9702 25.4967 35.371 24.524 35.6776L23.2929 40.6406C23.212 40.9603 22.9252 41.1855 22.5939 41.1855L17.7662 41.1888ZM12.991 32.9219C13.1135 32.9219 13.2386 32.9533 13.3507 33.0184C14.4046 33.6281 15.5077 34.0961 16.6267 34.4084C16.8744 34.4785 17.0647 34.6807 17.1299 34.9314L18.3297 39.7464L22.0332 39.7434L23.2304 34.9263C23.2929 34.678 23.4833 34.4785 23.7311 34.4084C24.8657 34.0887 25.9663 33.6201 27.0069 33.0166C27.2337 32.8828 27.5103 32.8873 27.7346 33.0198L32.0119 35.6L34.633 32.9648L32.0641 28.6758C31.9283 28.4496 31.9283 28.1694 32.0563 27.9417C32.6482 26.914 33.102 25.8165 33.4098 24.6725C33.4776 24.4211 33.6759 24.2258 33.9287 24.163L38.7642 22.9456V19.232L33.9287 18.0164C33.6759 17.9548 33.4776 17.7586 33.4098 17.5058C33.1046 16.3727 32.6482 15.2698 32.0563 14.2335C31.9283 14.0098 31.9311 13.7303 32.0641 13.5036L34.6277 9.21372L32.0092 6.58617L27.732 9.16162C27.5103 9.29688 27.2337 9.30313 27.0044 9.16756C25.961 8.56432 24.8604 8.09665 23.7286 7.77606C23.4807 7.70769 23.2904 7.50995 23.2276 7.25867L22.0281 2.43926H18.3246L17.1168 7.28709C17.0545 7.53899 16.8587 7.74025 16.6084 7.80743C15.4738 8.11706 14.3758 8.57466 13.343 9.16901C13.1188 9.30313 12.8422 9.30013 12.6153 9.16162L8.34327 6.58793L5.72473 9.21935L8.28849 13.5036C8.42413 13.7303 8.42413 14.0098 8.29386 14.2359C7.69126 15.2891 7.22182 16.3967 6.90615 17.5291C6.83573 17.781 6.63753 17.972 6.38713 18.035L1.59096 19.2377V22.953L6.42107 24.168C6.6741 24.2308 6.87225 24.4271 6.94005 24.679C7.24773 25.8147 7.70175 26.9164 8.29901 27.9538C8.42928 28.1812 8.42675 28.4615 8.29102 28.6856L5.72735 32.9698L8.34842 35.6024L12.6205 33.0263C12.7354 32.9568 12.863 32.9219 12.991 32.9219Z" fill="url(#paint0_linear_104906_140)"/>
<path fill-rule="evenodd" clip-rule="evenodd" d="M20.1815 26.6571C17.1246 26.6571 14.6366 24.1631 14.6366 21.0918C14.6366 18.0226 17.1246 15.5285 20.1815 15.5285C23.2355 15.5285 25.721 18.0226 25.721 21.0918C25.721 24.1631 23.2355 26.6571 20.1815 26.6571ZM20.1815 16.9706C17.915 16.9706 16.0737 18.82 16.0737 21.0918C16.0737 23.3636 17.915 25.2147 20.1815 25.2147C22.4426 25.2147 24.2839 23.3636 24.2839 21.0918C24.2839 18.82 22.4426 16.9706 20.1815 16.9706ZM17.7662 41.1888C17.4377 41.1888 17.1509 40.9627 17.0699 40.6436L15.8337 35.6809C14.8713 35.3825 13.922 34.9767 13.0039 34.4756L8.60657 37.1254C8.32497 37.2953 7.96255 37.2485 7.73028 37.0188L4.3137 33.5882C4.08151 33.3558 4.03721 32.9932 4.20671 32.7094L6.84618 28.302C6.35594 27.39 5.96203 26.4411 5.67004 25.4637L0.698742 24.2167C0.380667 24.137 0.153809 23.8463 0.153809 23.5187V18.6747C0.153809 18.3423 0.380667 18.0534 0.698742 17.9753L5.64129 16.7368C5.94381 15.7606 6.34803 14.8075 6.84356 13.8923L4.20418 9.47749C4.03468 9.19303 4.0791 8.82897 4.31108 8.59573L7.7225 5.17279C7.95727 4.93748 8.31973 4.88895 8.60149 5.06508L12.9987 7.71128C13.9037 7.22464 14.8505 6.82565 15.8232 6.5338L17.0646 1.54389C17.1455 1.22304 17.4324 0.997192 17.7612 0.997192H22.5887C22.9173 0.997192 23.2068 1.22304 23.2851 1.54389L24.5214 6.51044C25.4916 6.81351 26.4409 7.21787 27.3485 7.70772L31.7509 5.0565C32.0274 4.89458 32.3926 4.93748 32.6274 5.16747L36.0387 8.59067C36.2735 8.82391 36.3178 9.18682 36.1483 9.47304L33.5088 13.8923C33.994 14.798 34.3878 15.7476 34.6799 16.7184L39.6562 17.9702C39.977 18.0484 40.2013 18.339 40.2013 18.6694V23.5095C40.2013 23.839 39.977 24.1302 39.6562 24.2075L34.6799 25.4586C34.3878 26.439 33.994 27.388 33.5114 28.2878L36.1535 32.7038C36.323 32.9897 36.2787 33.3529 36.044 33.5858L32.6325 37.0164C32.3979 37.2485 32.0352 37.2881 31.7561 37.1254L27.3538 34.4732C26.4461 34.9702 25.4967 35.371 24.524 35.6776L23.2929 40.6406C23.212 40.9603 22.9252 41.1855 22.5939 41.1855L17.7662 41.1888ZM12.991 32.9219C13.1135 32.9219 13.2386 32.9533 13.3507 33.0184C14.4046 33.6281 15.5077 34.0961 16.6267 34.4084C16.8744 34.4785 17.0647 34.6807 17.1299 34.9314L18.3297 39.7464L22.0332 39.7434L23.2304 34.9263C23.2929 34.678 23.4833 34.4785 23.7311 34.4084C24.8657 34.0887 25.9663 33.6201 27.0069 33.0166C27.2337 32.8828 27.5103 32.8873 27.7346 33.0198L32.0119 35.6L34.633 32.9648L32.0641 28.6758C31.9283 28.4496 31.9283 28.1694 32.0563 27.9417C32.6482 26.914 33.102 25.8165 33.4098 24.6725C33.4776 24.4211 33.6759 24.2258 33.9287 24.163L38.7642 22.9456V19.232L33.9287 18.0164C33.6759 17.9548 33.4776 17.7586 33.4098 17.5058C33.1046 16.3727 32.6482 15.2698 32.0563 14.2335C31.9283 14.0098 31.9311 13.7303 32.0641 13.5036L34.6277 9.21372L32.0092 6.58617L27.732 9.16162C27.5103 9.29688 27.2337 9.30313 27.0044 9.16756C25.961 8.56432 24.8604 8.09665 23.7286 7.77606C23.4807 7.70769 23.2904 7.50995 23.2276 7.25867L22.0281 2.43926H18.3246L17.1168 7.28709C17.0545 7.53899 16.8587 7.74025 16.6084 7.80743C15.4738 8.11706 14.3758 8.57466 13.343 9.16901C13.1188 9.30313 12.8422 9.30013 12.6153 9.16162L8.34327 6.58793L5.72473 9.21935L8.28849 13.5036C8.42413 13.7303 8.42413 14.0098 8.29386 14.2359C7.69126 15.2891 7.22182 16.3967 6.90615 17.5291C6.83573 17.781 6.63753 17.972 6.38713 18.035L1.59096 19.2377V22.953L6.42107 24.168C6.6741 24.2308 6.87225 24.4271 6.94005 24.679C7.24773 25.8147 7.70175 26.9164 8.29901 27.9538C8.42928 28.1812 8.42675 28.4615 8.29102 28.6856L5.72735 32.9698L8.34842 35.6024L12.6205 33.0263C12.7354 32.9568 12.863 32.9219 12.991 32.9219Z" fill="#FF3B4A"/>
<defs>
<linearGradient id="paint0_linear_104906_140" x1="20.6327" y1="-18.6419" x2="-19.5553" y2="20.492" gradientUnits="userSpaceOnUse">
<stop stop-color="white"/>
<stop offset="1" stop-color="white"/>
</linearGradient>
</defs>
</svg>
