<svg width="36" height="38" viewBox="0 0 36 38" fill="none" xmlns="http://www.w3.org/2000/svg">
<path fill-rule="evenodd" clip-rule="evenodd" d="M35.8647 13.0666C34.9244 10.2529 33.5356 7.71028 31.7338 5.50804C29.9429 3.31948 27.7986 1.54644 25.3582 0.238436C25.0838 0.0925163 24.7549 0.144316 24.5295 0.376956L8.85409 16.3386L7.04406 18.182C6.94626 18.2691 6.86201 18.3854 6.81036 18.5266C6.80234 18.5473 6.7941 18.5751 6.78581 18.5997L2.57083 30.8096L0.771831 36.0262C0.668532 36.3213 0.728351 36.6525 0.918649 36.889C1.06249 37.0652 1.26375 37.1581 1.47016 37.1581C1.53818 37.1581 1.60884 37.1489 1.67683 37.125L6.49779 35.6008L17.8359 32.0137C17.9065 31.9921 17.9773 31.9568 18.0425 31.9107C18.0777 31.8831 18.113 31.853 18.1456 31.8228L19.9964 29.9376L35.6689 13.975C35.8945 13.7454 35.9707 13.3848 35.8647 13.0666ZM3.6688 32.273C3.69862 32.2949 3.734 32.3079 3.76408 32.3254C4.08456 32.55 4.38358 32.7981 4.63083 33.1041C4.87813 33.4066 5.07385 33.7595 5.24506 34.1339C5.26418 34.1676 5.27216 34.2097 5.28575 34.2473L2.70673 35.0645L3.6688 32.273ZM17.2625 30.4585L6.76417 33.7799C6.73428 33.7077 6.6827 33.6535 6.6501 33.5828C6.40812 32.9958 6.11738 32.4435 5.7369 31.9767C5.35374 31.5111 4.8863 31.1411 4.38358 30.817C4.32105 30.7764 4.28299 30.7136 4.22046 30.6772L8.13932 19.3258L9.31329 18.1368L10.2618 19.2932L18.4309 29.2683L17.2625 30.4585ZM19.537 28.1412L17.1646 25.2451L29.625 12.5617C29.7853 12.3947 29.8667 12.1695 29.8667 11.9398C29.8667 11.7426 29.8043 11.5399 29.6711 11.3803C29.3939 11.04 28.9184 11.0178 28.6138 11.3274L16.1536 24.0117L15.6671 23.4144L13.8001 21.1302L26.2551 8.44732C26.418 8.2792 26.4997 8.05512 26.4997 7.82484C26.4997 7.62768 26.4344 7.42552 26.304 7.2648C26.0241 6.9262 25.5485 6.90516 25.2441 7.213L12.7864 19.8991L10.4193 17.0054L25.1599 1.9928C27.2389 3.18004 29.0786 4.737 30.6277 6.63788C32.1876 8.54024 33.4105 10.722 34.2802 13.1276L19.537 28.1412Z" fill="url(#paint0_linear_104906_146)"/>
<path fill-rule="evenodd" clip-rule="evenodd" d="M35.8647 13.0666C34.9244 10.2529 33.5356 7.71028 31.7338 5.50804C29.9429 3.31948 27.7986 1.54644 25.3582 0.238436C25.0838 0.0925163 24.7549 0.144316 24.5295 0.376956L8.85409 16.3386L7.04406 18.182C6.94626 18.2691 6.86201 18.3854 6.81036 18.5266C6.80234 18.5473 6.7941 18.5751 6.78581 18.5997L2.57083 30.8096L0.771831 36.0262C0.668532 36.3213 0.728351 36.6525 0.918649 36.889C1.06249 37.0652 1.26375 37.1581 1.47016 37.1581C1.53818 37.1581 1.60884 37.1489 1.67683 37.125L6.49779 35.6008L17.8359 32.0137C17.9065 31.9921 17.9773 31.9568 18.0425 31.9107C18.0777 31.8831 18.113 31.853 18.1456 31.8228L19.9964 29.9376L35.6689 13.975C35.8945 13.7454 35.9707 13.3848 35.8647 13.0666ZM3.6688 32.273C3.69862 32.2949 3.734 32.3079 3.76408 32.3254C4.08456 32.55 4.38358 32.7981 4.63083 33.1041C4.87813 33.4066 5.07385 33.7595 5.24506 34.1339C5.26418 34.1676 5.27216 34.2097 5.28575 34.2473L2.70673 35.0645L3.6688 32.273ZM17.2625 30.4585L6.76417 33.7799C6.73428 33.7077 6.6827 33.6535 6.6501 33.5828C6.40812 32.9958 6.11738 32.4435 5.7369 31.9767C5.35374 31.5111 4.8863 31.1411 4.38358 30.817C4.32105 30.7764 4.28299 30.7136 4.22046 30.6772L8.13932 19.3258L9.31329 18.1368L10.2618 19.2932L18.4309 29.2683L17.2625 30.4585ZM19.537 28.1412L17.1646 25.2451L29.625 12.5617C29.7853 12.3947 29.8667 12.1695 29.8667 11.9398C29.8667 11.7426 29.8043 11.5399 29.6711 11.3803C29.3939 11.04 28.9184 11.0178 28.6138 11.3274L16.1536 24.0117L15.6671 23.4144L13.8001 21.1302L26.2551 8.44732C26.418 8.2792 26.4997 8.05512 26.4997 7.82484C26.4997 7.62768 26.4344 7.42552 26.304 7.2648C26.0241 6.9262 25.5485 6.90516 25.2441 7.213L12.7864 19.8991L10.4193 17.0054L25.1599 1.9928C27.2389 3.18004 29.0786 4.737 30.6277 6.63788C32.1876 8.54024 33.4105 10.722 34.2802 13.1276L19.537 28.1412Z" fill="#FF3B4A"/>
<defs>
<linearGradient id="paint0_linear_104906_146" x1="17.4788" y1="-17.4628" x2="-17.8023" y2="17.7691" gradientUnits="userSpaceOnUse">
<stop stop-color="white"/>
<stop offset="1" stop-color="white"/>
</linearGradient>
</defs>
</svg>
