<svg width="40" height="34" viewBox="0 0 40 34" fill="none" xmlns="http://www.w3.org/2000/svg">
<path fill-rule="evenodd" clip-rule="evenodd" d="M39.9101 7.04363V17.4455C39.9113 17.463 39.9192 17.4765 39.927 17.4899C39.9354 17.5042 39.9437 17.5185 39.9437 17.5373C39.9437 17.5548 39.9356 17.5683 39.9273 17.582C39.9194 17.5951 39.9113 17.6084 39.9101 17.6258V27.9667C39.9101 28.3992 39.5894 28.747 39.1965 28.747H36.8152C36.4223 28.747 36.1043 28.3992 36.1043 27.9667C36.1043 27.5352 36.4223 27.1859 36.8152 27.1859H38.4855V18.3161H32.0527C31.6597 18.3161 31.3417 17.9671 31.3417 17.5373V7.82209H25.62V22.1412C25.62 22.5704 25.302 22.9221 24.909 22.9221C24.5159 22.9221 24.1953 22.5704 24.1953 22.1412V7.04363V2.55245H1.66245V27.1859H3.35864C3.75159 27.1859 4.07224 27.5352 4.07224 27.9667C4.07224 28.3992 3.75159 28.747 3.35864 28.747H0.951473C0.558362 28.747 0.237793 28.3992 0.237793 27.9667V1.77456C0.237793 1.34421 0.558362 0.996094 0.951473 0.996094H24.909C25.302 0.996094 25.62 1.34421 25.62 1.77456V6.26217H39.1965C39.5894 6.26217 39.9101 6.61325 39.9101 7.04363ZM32.7637 16.7558H38.4855V7.82209H32.7637V16.7558ZM24.1618 27.9691C24.1618 24.6507 26.6283 21.9521 29.661 21.9521C32.6887 21.9521 35.1527 24.6507 35.1527 27.9691C35.1527 31.2893 32.6887 33.9888 29.661 33.9888C26.6283 33.9888 24.1618 31.2893 24.1618 27.9691ZM25.5863 27.9691C25.5863 30.4294 27.4144 32.4292 29.661 32.4292C31.9027 32.4292 33.7281 30.4294 33.7281 27.9691C33.7281 25.5103 31.9027 23.5114 29.661 23.5114C27.4144 23.5114 25.5863 25.5103 25.5863 27.9691ZM5.02356 27.9667C5.02356 24.648 7.48767 21.9482 10.5205 21.9482C13.5506 21.9482 16.0173 24.648 16.0173 27.9667C16.0173 31.2878 13.5506 33.9858 10.5205 33.9858C7.48767 33.9858 5.02356 31.2878 5.02356 27.9667ZM6.44578 27.9667C6.44578 30.4265 8.27364 32.4265 10.5205 32.4265C12.7646 32.4265 14.5927 30.4265 14.5927 27.9667C14.5927 25.5079 12.7646 23.5105 10.5205 23.5105C8.27364 23.5105 6.44578 25.5079 6.44578 27.9667ZM17.6797 27.1859H22.4993C22.8922 27.1859 23.2102 27.5351 23.2102 27.9667C23.2102 28.3992 22.8922 28.747 22.4993 28.747H17.6797C17.2868 28.747 16.9688 28.3992 16.9688 27.9667C16.9688 27.5351 17.2868 27.1859 17.6797 27.1859Z" fill="url(#paint0_linear_104906_167)"/>
<path fill-rule="evenodd" clip-rule="evenodd" d="M39.9101 7.04363V17.4455C39.9113 17.463 39.9192 17.4765 39.927 17.4899C39.9354 17.5042 39.9437 17.5185 39.9437 17.5373C39.9437 17.5548 39.9356 17.5683 39.9273 17.582C39.9194 17.5951 39.9113 17.6084 39.9101 17.6258V27.9667C39.9101 28.3992 39.5894 28.747 39.1965 28.747H36.8152C36.4223 28.747 36.1043 28.3992 36.1043 27.9667C36.1043 27.5352 36.4223 27.1859 36.8152 27.1859H38.4855V18.3161H32.0527C31.6597 18.3161 31.3417 17.9671 31.3417 17.5373V7.82209H25.62V22.1412C25.62 22.5704 25.302 22.9221 24.909 22.9221C24.5159 22.9221 24.1953 22.5704 24.1953 22.1412V7.04363V2.55245H1.66245V27.1859H3.35864C3.75159 27.1859 4.07224 27.5352 4.07224 27.9667C4.07224 28.3992 3.75159 28.747 3.35864 28.747H0.951473C0.558362 28.747 0.237793 28.3992 0.237793 27.9667V1.77456C0.237793 1.34421 0.558362 0.996094 0.951473 0.996094H24.909C25.302 0.996094 25.62 1.34421 25.62 1.77456V6.26217H39.1965C39.5894 6.26217 39.9101 6.61325 39.9101 7.04363ZM32.7637 16.7558H38.4855V7.82209H32.7637V16.7558ZM24.1618 27.9691C24.1618 24.6507 26.6283 21.9521 29.661 21.9521C32.6887 21.9521 35.1527 24.6507 35.1527 27.9691C35.1527 31.2893 32.6887 33.9888 29.661 33.9888C26.6283 33.9888 24.1618 31.2893 24.1618 27.9691ZM25.5863 27.9691C25.5863 30.4294 27.4144 32.4292 29.661 32.4292C31.9027 32.4292 33.7281 30.4294 33.7281 27.9691C33.7281 25.5103 31.9027 23.5114 29.661 23.5114C27.4144 23.5114 25.5863 25.5103 25.5863 27.9691ZM5.02356 27.9667C5.02356 24.648 7.48767 21.9482 10.5205 21.9482C13.5506 21.9482 16.0173 24.648 16.0173 27.9667C16.0173 31.2878 13.5506 33.9858 10.5205 33.9858C7.48767 33.9858 5.02356 31.2878 5.02356 27.9667ZM6.44578 27.9667C6.44578 30.4265 8.27364 32.4265 10.5205 32.4265C12.7646 32.4265 14.5927 30.4265 14.5927 27.9667C14.5927 25.5079 12.7646 23.5105 10.5205 23.5105C8.27364 23.5105 6.44578 25.5079 6.44578 27.9667ZM17.6797 27.1859H22.4993C22.8922 27.1859 23.2102 27.5351 23.2102 27.9667C23.2102 28.3992 22.8922 28.747 22.4993 28.747H17.6797C17.2868 28.747 16.9688 28.3992 16.9688 27.9667C16.9688 27.5351 17.2868 27.1859 17.6797 27.1859Z" fill="#FF3B4A"/>
<defs>
<linearGradient id="paint0_linear_104906_167" x1="15.7749" y1="-11.9141" x2="-8.53879" y2="25.4749" gradientUnits="userSpaceOnUse">
<stop stop-color="white"/>
<stop offset="1" stop-color="white"/>
</linearGradient>
</defs>
</svg>
